<?xml version="1.0" encoding="utf-8"?>
<!-- Generator: Adobe Illustrator 26.1.0, SVG Export Plug-In . SVG Version: 6.00 Build 0)  -->
<svg version="1.1" id="Capa_1" xmlns="http://www.w3.org/2000/svg" xmlns:xlink="http://www.w3.org/1999/xlink" x="0px" y="0px"
	 viewBox="0 0 80.1 82.3" style="enable-background:new 0 0 80.1 82.3;" xml:space="preserve">
<style type="text/css">
	.st0{fill:#030104;}
</style>
<g>
	<path class="st0" d="M63.9,61.4c3.4,5.3,5,8.1,5,11c0,5.8-4.3,8.6-10.1,8.6c-2.6,0-4.2,0-8.4-2.2c0,0-2.7-2.5-9-2.2
		c-6.4-0.3-9.1,2.2-9.1,2.2C28.1,81.1,26.5,81,24,81c-5.8,0-10.1-2.8-10.1-8.6c0-2.9,1.6-5.7,5-11c0,0,6.4-10.6,11.9-15.5
		c4-3.6,9.8-3.6,9.8-3.6h1.8v0c0,0,6.1,0,9.8,3.6C57.4,51,63.9,61.4,63.9,61.4z M27.2,35.2c6.1,0,11-7.7,11-17.1S33.2,1,27.2,1
		s-11,7.7-11,17.1S21.1,35.2,27.2,35.2z M16.7,51.8c4.5-2.1,5.5-9.4,2.3-16.3S9.5,24.5,5,26.6S-0.4,36,2.8,42.9
		C6,49.9,12.2,53.9,16.7,51.8z M52.7,35.2c6.1,0,11-7.7,11-17.1S58.8,1,52.7,1s-11,7.7-11,17.1S46.6,35.2,52.7,35.2z M74.8,26.6
		c-4.5-2.1-10.7,1.9-13.9,8.9c-3.2,7-2.2,14.3,2.3,16.3c4.5,2.1,10.7-1.9,13.9-8.9C80.3,36,79.3,28.7,74.8,26.6z"/>
</g>
</svg>
